<svg width="30" height="30" viewBox="0 0 30 30" fill="none" xmlns="http://www.w3.org/2000/svg">
<path fill-rule="evenodd" clip-rule="evenodd" d="M10 14C13.3137 14 16 11.5376 16 8.5C16 5.46243 13.3137 3 10 3C6.68629 3 4 5.46243 4 8.5C4 11.5376 6.68629 14 10 14ZM22 16C24.2091 16 26 14.2091 26 12C26 9.79086 24.2091 8 22 8C19.7909 8 18 9.79086 18 12C18 14.2091 19.7909 16 22 16ZM0 25.5C0 19.701 4.70101 16 10.5 16C16.299 16 21 19.701 21 25.5C21 26.3284 20.3284 27 19.5 27H1.5C0.671573 27 0 26.3284 0 25.5ZM22.4454 27C22.2914 27 22.1933 26.8318 22.2545 26.6905C22.4125 26.3255 22.5 25.923 22.5 25.5C22.5 22.6445 21.5218 20.2516 19.9131 18.4346C19.8076 18.3153 19.871 18.1245 20.0287 18.1022C20.5066 18.0346 20.9982 18 21.5 18C26.1944 18 30 21.0281 30 25.7727C30 26.4506 29.4505 27 28.7727 27H22.4454Z" fill="white"/>
</svg>
