<svg width="30" height="30" viewBox="0 0 30 30" fill="none" xmlns="http://www.w3.org/2000/svg">
<path fill-rule="evenodd" clip-rule="evenodd" d="M14 8.5C14 10.2727 12.3765 12 10 12C7.62349 12 6 10.2727 6 8.5C6 6.72726 7.62349 5 10 5C12.3765 5 14 6.72726 14 8.5ZM16 8.5C16 11.5376 13.3137 14 10 14C6.68629 14 4 11.5376 4 8.5C4 5.46243 6.68629 3 10 3C13.3137 3 16 5.46243 16 8.5ZM24 12C24 13.1046 23.1046 14 22 14C20.8954 14 20 13.1046 20 12C20 10.8954 20.8954 10 22 10C23.1046 10 24 10.8954 24 12ZM26 12C26 14.2091 24.2091 16 22 16C19.7909 16 18 14.2091 18 12C18 9.79086 19.7909 8 22 8C24.2091 8 26 9.79086 26 12ZM4.43993 20.2535C2.88373 21.6113 2 23.3543 2 25C2 25.5523 1.55228 26 1 26C0.447715 26 0 25.5523 0 25C0 22.6457 1.24291 20.3887 3.12504 18.7465C5.01687 17.0958 7.62261 16 10.5 16C13.3774 16 15.9831 17.0958 17.875 18.7465C19.7571 20.3887 21 22.6457 21 25C21 25.5523 20.5523 26 20 26C19.4477 26 19 25.5523 19 25C19 23.3543 18.1163 21.6113 16.5601 20.2535C15.0136 18.9042 12.8693 18 10.5 18C8.13068 18 5.98643 18.9042 4.43993 20.2535ZM22.166 20.1088C22.5907 20.0373 23.0349 20 23.4936 20C26.3049 20 28.3025 22.0958 27.9616 24.8784C27.8945 25.4266 28.2844 25.9254 28.8326 25.9926C29.3808 26.0597 29.8796 25.6698 29.9468 25.1216C30.446 21.047 27.403 18 23.4936 18C22.9266 18 22.3713 18.0461 21.834 18.1365C21.2894 18.2282 20.9222 18.744 21.0139 19.2887C21.1056 19.8333 21.6214 20.2005 22.166 20.1088Z" fill="#BFBFBF"/>
</svg>
