<svg width="28" height="28" viewBox="0 0 28 28" fill="none" xmlns="http://www.w3.org/2000/svg">
<path d="M14.9495 3.24074C14.575 2.91975 14.0224 2.91975 13.648 3.24074L2.35121 12.9237C1.64631 13.5279 2.07359 14.6829 3.002 14.6829H4.63208L6.02021 23.0117C6.18094 23.9761 7.01532 24.6829 7.993 24.6829H13.2987V17.1829C13.2987 16.9068 13.5226 16.6829 13.7987 16.6829H14.7987C15.0749 16.6829 15.2987 16.9068 15.2987 17.1829V24.6829H20.6045C21.5822 24.6829 22.4165 23.9761 22.5773 23.0117L23.9654 14.6829H25.5955C26.5239 14.6829 26.9512 13.5279 26.2463 12.9237L14.9495 3.24074Z" fill="white"/>
</svg>
