<svg width="28" height="28" viewBox="0 0 28 28" fill="none" xmlns="http://www.w3.org/2000/svg">
<g filter="url(#filter0_d_214_550)">
<path fill-rule="evenodd" clip-rule="evenodd" d="M9.37663 2.29289C9.76716 1.90237 10.4003 1.90237 10.7908 2.29289L14.0837 5.58579L17.3766 2.29289C17.7672 1.90237 18.4003 1.90237 18.7908 2.29289C19.1814 2.68342 19.1814 3.31658 18.7908 3.70711L16.498 6H21.9785C22.6696 6 23.2549 6.16639 23.7306 6.46768C24.2025 6.76655 24.5095 7.16181 24.7055 7.53425C24.8989 7.90177 24.9908 8.25806 25.0358 8.5147C25.0587 8.64527 25.0706 8.75642 25.0768 8.83909C25.0799 8.88059 25.0817 8.91541 25.0826 8.94247L25.0837 9C25.0837 9.55228 24.636 10 24.0837 10C23.5354 10 23.0901 9.55865 23.0838 9.01179L23.0835 9.00558L23.0824 8.98904C23.0804 8.96233 23.0759 8.91723 23.0659 8.8603C23.0451 8.74194 23.0054 8.59823 22.9357 8.46575C22.8685 8.33819 22.7807 8.23345 22.6605 8.15732C22.5441 8.08361 22.34 8 21.9785 8H6.189C5.82749 8 5.62333 8.08361 5.50695 8.15732C5.38674 8.23345 5.29895 8.33819 5.23182 8.46575C5.16209 8.59823 5.12236 8.74194 5.10159 8.8603C5.0916 8.91723 5.08705 8.96233 5.08504 8.98904C5.08415 9.00082 5.08379 9.00858 5.08367 9.01169C5.07741 9.55859 4.63212 10 4.08374 10C3.53146 10 3.08374 9.55228 3.08374 9L3.08487 8.94247C3.08582 8.91541 3.08755 8.88059 3.09067 8.83909C3.09688 8.75642 3.10877 8.64527 3.13168 8.5147C3.1767 8.25806 3.26855 7.90177 3.46198 7.53425C3.658 7.16181 3.96495 6.76655 4.43685 6.46768C4.91257 6.16639 5.49788 6 6.189 6H11.6695L9.37663 3.70711C8.98611 3.31658 8.98611 2.68342 9.37663 2.29289ZM4.58374 12C4.85988 12 5.08374 12.2239 5.08374 12.5V18H7.58374C7.85988 18 8.08374 18.2239 8.08374 18.5V19.5C8.08374 19.7761 7.85988 20 7.58374 20H3.58374C3.3076 20 3.08374 19.7761 3.08374 19.5V12.5C3.08374 12.2239 3.3076 12 3.58374 12H4.58374ZM9.58374 12C9.3076 12 9.08374 12.2239 9.08374 12.5V19.5C9.08374 19.7761 9.3076 20 9.58374 20H10.5837C10.8599 20 11.0837 19.7761 11.0837 19.5V12.5C11.0837 12.2239 10.8599 12 10.5837 12H9.58374ZM20.5837 12C20.3076 12 20.0837 12.2239 20.0837 12.5V19.5C20.0837 19.7761 20.3076 20 20.5837 20H24.0837C24.636 20 25.0837 19.5523 25.0837 19C25.0837 18.4477 24.636 18 24.0837 18H22.0837V17H24.0837C24.636 17 25.0837 16.5523 25.0837 16C25.0837 15.4477 24.636 15 24.0837 15H22.0837V14H24.0837C24.636 14 25.0837 13.5523 25.0837 13C25.0837 12.4477 24.636 12 24.0837 12H20.5837ZM14.1784 12.3787C14.1228 12.1562 13.9228 12 13.6934 12H12.7241C12.3988 12 12.1602 12.3057 12.2391 12.6213L13.8944 19.2425C14.0057 19.6877 14.4056 20 14.8645 20H16.303C16.7618 20 17.1618 19.6877 17.2731 19.2425L18.9284 12.6213C19.0073 12.3057 18.7686 12 18.4434 12H17.4741C17.2447 12 17.0447 12.1562 16.9891 12.3787L15.5837 18L14.1784 12.3787ZM4.35311 25.5323C4.82883 25.8336 5.41414 26 6.10526 26L21.8947 26C22.5859 26 23.1712 25.8336 23.6469 25.5323C24.1188 25.2335 24.4257 24.8382 24.6218 24.4657C24.8152 24.0982 24.907 23.7419 24.9521 23.4853C24.975 23.3547 24.9869 23.2436 24.9931 23.1609C24.9962 23.1194 24.9979 23.0846 24.9989 23.0575L25 23C25 22.4477 24.5523 22 24 22C23.4516 22 23.0063 22.4414 23.0001 22.9883C22.9999 22.9914 22.9996 22.9992 22.9987 23.011C22.9967 23.0377 22.9921 23.0828 22.9821 23.1397C22.9614 23.2581 22.9217 23.4018 22.8519 23.5343C22.7848 23.6618 22.697 23.7665 22.5768 23.8427C22.4604 23.9164 22.2563 24 21.8947 24L6.10526 24C5.74375 24 5.53959 23.9164 5.42321 23.8427C5.303 23.7665 5.21521 23.6618 5.14808 23.5343C5.07835 23.4018 5.03862 23.2581 5.01785 23.1397C5.00786 23.0828 5.00331 23.0377 5.0013 23.011C5.0004 22.9991 5.00005 22.9912 4.99993 22.9882C4.99361 22.4414 4.54835 22 4 22C3.44771 22 3 22.4477 3 23L3.00113 23.0575C3.00208 23.0846 3.00381 23.1194 3.00693 23.1609C3.01314 23.2436 3.02503 23.3547 3.04794 23.4853C3.09296 23.7419 3.18481 24.0982 3.37824 24.4657C3.57426 24.8382 3.88121 25.2334 4.35311 25.5323Z" fill="white"/>
</g>
<defs>
<filter id="filter0_d_214_550" x="0" y="0" width="30" height="30" filterUnits="userSpaceOnUse" color-interpolation-filters="sRGB">
<feFlood flood-opacity="0" result="BackgroundImageFix"/>
<feColorMatrix in="SourceAlpha" type="matrix" values="0 0 0 0 0 0 0 0 0 0 0 0 0 0 0 0 0 0 127 0" result="hardAlpha"/>
<feOffset dx="1" dy="1"/>
<feGaussianBlur stdDeviation="0.5"/>
<feComposite in2="hardAlpha" operator="out"/>
<feColorMatrix type="matrix" values="0 0 0 0 0 0 0 0 0 0 0 0 0 0 0 0 0 0 0.25 0"/>
<feBlend mode="normal" in2="BackgroundImageFix" result="effect1_dropShadow_214_550"/>
<feBlend mode="normal" in="SourceGraphic" in2="effect1_dropShadow_214_550" result="shape"/>
</filter>
</defs>
</svg>
