<svg width="28" height="28" viewBox="0 0 28 28" fill="none" xmlns="http://www.w3.org/2000/svg">
<g filter="url(#filter0_d_214_554)">
<path fill-rule="evenodd" clip-rule="evenodd" d="M13 5C8.58172 5 5 8.58172 5 13C5 17.4183 8.58172 21 13 21C15.2715 21 17.3204 20.0547 18.7779 18.5332C20.1553 17.0954 21 15.1474 21 13C21 8.58172 17.4183 5 13 5ZM3 13C3 7.47715 7.47715 3 13 3C18.5228 3 23 7.47715 23 13C23 15.3304 22.2018 17.476 20.8653 19.1761L25.7071 24.0179L24.2929 25.4321L19.4786 20.6178C17.7341 22.1026 15.4712 23 13 23C7.47715 23 3 18.5228 3 13Z" fill="white"/>
</g>
<defs>
<filter id="filter0_d_214_554" x="0" y="0" width="30" height="30" filterUnits="userSpaceOnUse" color-interpolation-filters="sRGB">
<feFlood flood-opacity="0" result="BackgroundImageFix"/>
<feColorMatrix in="SourceAlpha" type="matrix" values="0 0 0 0 0 0 0 0 0 0 0 0 0 0 0 0 0 0 127 0" result="hardAlpha"/>
<feOffset dx="1" dy="1"/>
<feGaussianBlur stdDeviation="0.5"/>
<feComposite in2="hardAlpha" operator="out"/>
<feColorMatrix type="matrix" values="0 0 0 0 0 0 0 0 0 0 0 0 0 0 0 0 0 0 0.25 0"/>
<feBlend mode="normal" in2="BackgroundImageFix" result="effect1_dropShadow_214_554"/>
<feBlend mode="normal" in="SourceGraphic" in2="effect1_dropShadow_214_554" result="shape"/>
</filter>
</defs>
</svg>
